<svg width="109" height="15" viewBox="0 0 109 15" version="1.1" xmlns="http://www.w3.org/2000/svg" xmlns:xlink="http://www.w3.org/1999/xlink">
<title>&#60;MOMDB&#62;</title>
<desc>Created using Figma</desc>
<g id="Canvas" transform="translate(126 152)">
<g id="&#60;MOMDB&#62;">
<use xlink:href="#path0_fill" transform="translate(-126 -157)" fill="#FFFFFF"/>
</g>
</g>
<defs>
<path id="path0_fill" d="M 0.74 13.5L 0.74 12.1L 7.56 8.68L 7.56 10.38L 2.76 12.78L 7.56 15.22L 7.56 16.9L 0.74 13.5ZM 25.1097 9.52C 25.0964 9.24 25.0897 8.96 25.0897 8.68C 25.0897 8.4 25.0964 8.12 25.1097 7.84L 21.4697 17.54L 19.9497 17.54L 16.3097 7.84C 16.323 8.12 16.3297 8.4 16.3297 8.68C 16.3297 8.96 16.323 9.24 16.3097 9.52L 15.9897 19L 14.2297 19L 14.8497 5.64L 17.0697 5.64L 20.7097 15.54L 24.3497 5.64L 26.5697 5.64L 27.1897 19L 25.4297 19L 25.1097 9.52ZM 36.4953 5.96C 37.1886 5.57333 37.9953 5.38 38.9153 5.38C 39.8353 5.38 40.642 5.57333 41.3353 5.96C 42.0286 6.34667 42.5686 6.87333 42.9553 7.54C 43.7153 8.84667 44.0953 10.44 44.0953 12.32C 44.0953 14.16 43.7086 15.7467 42.9353 17.08C 42.5353 17.76 41.9886 18.2933 41.2953 18.68C 40.602 19.0667 39.7886 19.26 38.8553 19.26C 37.9353 19.26 37.1353 19.0667 36.4553 18.68C 35.7753 18.2933 35.242 17.7667 34.8553 17.1C 34.0953 15.7933 33.7153 14.2 33.7153 12.32C 33.7153 10.4533 34.1086 8.86 34.8953 7.54C 35.282 6.87333 35.8153 6.34667 36.4953 5.96ZM 36.4353 16.1C 36.9686 17.0733 37.7886 17.56 38.8953 17.56C 40.002 17.56 40.8153 17.0733 41.3353 16.1C 41.8686 15.1267 42.1353 13.8667 42.1353 12.32C 42.1353 10.76 41.8686 9.5 41.3353 8.54C 40.8153 7.56667 40.002 7.08 38.8953 7.08C 37.7886 7.08 36.9686 7.56667 36.4353 8.54C 35.9153 9.5 35.6553 10.76 35.6553 12.32C 35.6553 13.8667 35.9153 15.1267 36.4353 16.1ZM 61.4964 9.52C 61.4831 9.24 61.4764 8.96 61.4764 8.68C 61.4764 8.4 61.4831 8.12 61.4964 7.84L 57.8564 17.54L 56.3364 17.54L 52.6964 7.84C 52.7097 8.12 52.7164 8.4 52.7164 8.68C 52.7164 8.96 52.7097 9.24 52.6964 9.52L 52.3764 19L 50.6164 19L 51.2364 5.64L 53.4564 5.64L 57.0964 15.54L 60.7364 5.64L 62.9564 5.64L 63.5764 19L 61.8164 19L 61.4964 9.52ZM 72.582 7.26L 72.582 17.38L 74.242 17.38C 75.8154 17.38 76.882 16.9733 77.442 16.16C 78.002 15.3467 78.282 14.0667 78.282 12.32C 78.282 10.5733 78.002 9.29333 77.442 8.48C 76.882 7.66667 75.8154 7.26 74.242 7.26L 72.582 7.26ZM 74.102 19L 70.662 19L 70.662 5.64L 74.102 5.64C 75.8087 5.64 76.9954 5.82 77.662 6.18C 79.3687 7.04667 80.222 9.1 80.222 12.34C 80.222 15.5667 79.3687 17.6133 77.662 18.48C 77.0087 18.8267 75.822 19 74.102 19ZM 94.7283 9.02C 94.7283 10.26 94.2149 11.1533 93.1883 11.7C 94.0416 12.02 94.6416 12.4533 94.9883 13C 95.3483 13.5333 95.5283 14.2333 95.5283 15.1C 95.5283 16.3133 95.1616 17.2667 94.4283 17.96C 93.6949 18.6533 92.5949 19 91.1283 19L 87.0683 19L 87.0683 5.64L 89.5283 5.64C 90.3149 5.64 90.8883 5.64667 91.2483 5.66C 93.5683 5.74 94.7283 6.86 94.7283 9.02ZM 88.9883 7.08L 88.9883 11.08L 90.9483 11.08C 91.5349 11.04 91.9883 10.84 92.3083 10.48C 92.6283 10.1067 92.7883 9.67333 92.7883 9.18C 92.7883 8.67333 92.7349 8.3 92.6283 8.06C 92.5349 7.82 92.4149 7.63333 92.2683 7.5C 92.1349 7.36667 91.9283 7.26667 91.6483 7.2C 91.2216 7.12 90.6483 7.08 89.9283 7.08L 88.9883 7.08ZM 90.7483 17.38C 92.6416 17.38 93.5883 16.5933 93.5883 15.02C 93.5883 14.22 93.3216 13.6133 92.7883 13.2C 92.3616 12.7733 91.6016 12.56 90.5083 12.56L 88.9883 12.56L 88.9883 17.38L 90.7483 17.38ZM 108.625 12.1L 108.625 13.5L 101.805 16.9L 101.805 15.22L 106.605 12.78L 101.805 10.38L 101.805 8.68L 108.625 12.1Z"/>
</defs>
</svg>
